<?xml version="1.0" encoding="UTF-8"?>
<!DOCTYPE svg PUBLIC "-//W3C//DTD SVG 1.1//EN" "http://www.w3.org/Graphics/SVG/1.1/DTD/svg11.dtd">
<!-- Creator: CorelDRAW -->
<svg xmlns="http://www.w3.org/2000/svg" xml:space="preserve" width="210mm" height="297mm" version="1.1" style="shape-rendering:geometricPrecision; text-rendering:geometricPrecision; image-rendering:optimizeQuality; fill-rule:evenodd; clip-rule:evenodd"
viewBox="0 0 21000 29700"
 xmlns:xlink="http://www.w3.org/1999/xlink"
 xmlns:xodm="http://www.corel.com/coreldraw/odm/2003">
 <defs>
  <style type="text/css">
   <![CDATA[
    .fil2 {fill:#F2F2F2}
    .fil0 {fill:#FEFEFE;fill-rule:nonzero}
    .fil1 {fill:#F2F2F2;fill-rule:nonzero}
   ]]>
  </style>
 </defs>
 <g id="Camada_x0020_1">
  <metadata id="CorelCorpID_0Corel-Layer"/>
  <g id="_2041891458816">
   <path class="fil0" d="M4060.71 21211.49l-110.63 -289.3c-211.3,93.63 -394.93,135.43 -550.93,126.22 -155.97,-9.2 -277.28,-78 -363.05,-206.32 -85.79,-128.32 -128.32,-322.62 -128.32,-583.55l0 -571.16 -365.89 0 0 566.9c0,272.24 42.58,492.09 128.35,660.11 85.8,168.03 201.38,289.31 346.73,363.05 145.36,73.74 308.44,103.52 489.24,90.06 180.8,-13.47 365.87,-65.23 554.5,-156.01z"/>
   <path class="fil1" d="M4616.99 21347.21c-177.26,0 -331.86,-41.15 -464.44,-122.69 -132.61,-81.54 -236.13,-195.71 -309.88,-342.47 -73.74,-146.77 -110.6,-317.65 -110.6,-513.35 0,-259.53 51.05,-486.43 153.16,-680.69 102.11,-194.3 245.34,-346.05 428.99,-454.52 183.62,-108.5 397.78,-162.39 643.12,-162.39 143.22,0 284.32,16.32 423.29,49.63 138.97,33.35 251.01,78 336.09,133.3l0 1437.98c0,93.59 24.83,168.78 73.74,226.2 48.94,57.43 112.76,86.49 192.17,86.49l-72.34 304.21c-123.37,0 -230.43,-33.35 -321.18,-99.98 -90.77,-66.67 -148.2,-153.88 -172.31,-261.66 -72.34,120.56 -181.53,216.97 -327.6,290.03 -146.05,73.02 -303.46,109.91 -472.21,109.91zm53.17 -293.57c140.38,0 263.06,-31.9 367.27,-95 104.25,-63.13 185.1,-148.21 243.22,-255.99 58.14,-107.78 87.23,-229.74 87.23,-365.86l0 -891.31c-43.96,-22.67 -104.24,-41.11 -180.83,-54.58 -76.56,-13.49 -155.28,-19.85 -236.1,-19.85 -171.6,0 -321.22,40.4 -449.54,121.94 -128.35,81.57 -228.33,195.7 -299.95,341.78 -71.61,146.08 -107.78,316.96 -107.78,512.63 0,211.31 53.2,381.49 158.85,511.26 105.66,129.76 244.62,194.98 417.63,194.98zm3896.98 287.18c-154.56,22.67 -272.27,14.18 -353.09,-25.52 -80.85,-39.74 -136.15,-111.35 -165.93,-214.15 -29.78,-102.81 -44.68,-237.55 -44.68,-404.89l0 -591.35c0,-258.08 -35.45,-445.27 -106.34,-560.85 -70.93,-115.58 -188.64,-173.01 -353.12,-173.01 -102.12,0 -205.64,24.8 -311.29,75.15 -105.65,50.36 -195.68,129.05 -270.14,236.11 -74.46,107.09 -117.71,246.06 -129.04,416.21l0 1201.87 -348.87 0 0 -1486.88c0,-123.41 -21.26,-231.16 -63.81,-323.34 -42.56,-92.19 -88.65,-179.4 -138.28,-261.66l350.99 -110.6c38.3,58.15 73.74,116.99 105.65,177.27 31.91,60.28 52.48,125.5 62.41,194.99 63.82,-126.23 173,-227.62 326.88,-304.18 153.84,-76.59 316.92,-114.89 489.96,-114.89 246.75,0 431.09,80.85 553.06,243.21 121.96,162.39 182.93,424.02 182.93,784.21l0 521.18c0,107.78 2.13,196.4 6.39,265.89 4.25,69.48 23.39,117.7 57.42,145.35 34.04,27.65 95.01,33.35 182.94,16.32l-34.04 293.56zm1267.81 6.39c-177.26,0 -331.85,-41.15 -464.43,-122.69 -132.62,-81.54 -236.14,-195.71 -309.88,-342.47 -73.74,-146.77 -110.6,-317.65 -110.6,-513.35 0,-259.53 51.04,-486.43 153.15,-680.69 102.12,-194.3 245.34,-346.05 429,-454.52 183.62,-108.5 397.77,-162.39 643.11,-162.39 143.23,0 284.33,16.32 423.29,49.63 138.97,33.35 251.01,78 336.09,133.3l0 1437.98c0,93.59 24.83,168.78 73.74,226.2 48.95,57.43 112.76,86.49 192.17,86.49l-72.33 304.21c-123.38,0 -230.44,-33.35 -321.18,-99.98 -90.78,-66.67 -148.21,-153.88 -172.32,-261.66 -72.33,120.56 -181.52,216.97 -327.6,290.03 -146.05,73.02 -303.46,109.91 -472.21,109.91zm53.18 -293.57c140.37,0 263.06,-31.9 367.27,-95 104.24,-63.13 185.09,-148.21 243.21,-255.99 58.15,-107.78 87.24,-229.74 87.24,-365.86l0 -891.31c-43.96,-22.67 -104.24,-41.11 -180.84,-54.58 -76.56,-13.49 -155.28,-19.85 -236.1,-19.85 -171.6,0 -321.21,40.4 -449.53,121.94 -128.36,81.57 -228.34,195.7 -299.95,341.78 -71.62,146.08 -107.78,316.96 -107.78,512.63 0,211.31 53.2,381.49 158.85,511.26 105.65,129.76 244.62,194.98 417.63,194.98zm2356.89 257.4c-100.67,0 -194.27,-19.16 -280.79,-57.46 -86.49,-38.26 -155.97,-101.39 -208.45,-189.29 -52.48,-87.93 -78.69,-206.35 -78.69,-355.25l0 -1591.13 350.96 0 0 1580.48c0,148.9 26.24,244.62 78.72,287.18 52.48,42.55 114.86,63.82 187.19,63.82 32.63,0 75.15,-4.95 127.64,-14.19 52.48,-9.21 97.13,-20.57 134.02,-34.73l42.52 236.11c-52.45,21.26 -112.04,38.98 -178.67,53.17 -66.67,14.18 -124.79,21.29 -174.45,21.29zm-574.32 -2644.1l0 -380.77 374.38 0 0 380.77 -374.38 0zm3390.71 2673.88c-154.57,22.67 -272.27,14.18 -353.09,-25.52 -80.86,-39.74 -136.15,-111.35 -165.93,-214.15 -29.78,-102.81 -44.69,-237.55 -44.69,-404.89l0 -591.35c0,-258.08 -35.44,-445.27 -106.34,-560.85 -70.92,-115.58 -188.63,-173.01 -353.12,-173.01 -102.11,0 -205.63,24.8 -311.28,75.15 -105.66,50.36 -195.68,129.05 -270.15,236.11 -74.46,107.09 -117.7,246.06 -129.04,416.21l0 1201.87 -348.86 0 0 -1486.88c0,-123.41 -21.26,-231.16 -63.82,-323.34 -42.55,-92.19 -88.64,-179.4 -138.28,-261.66l351 -110.6c38.29,58.15 73.74,116.99 105.65,177.27 31.9,60.28 52.48,125.5 62.4,194.99 63.82,-126.23 173.01,-227.62 326.88,-304.18 153.85,-76.59 316.93,-114.89 489.96,-114.89 246.75,0 431.1,80.85 553.06,243.21 121.97,162.39 182.93,424.02 182.93,784.21l0 521.18c0,107.78 2.13,196.4 6.39,265.89 4.26,69.48 23.39,117.7 57.43,145.35 34.04,27.65 95.01,33.35 182.93,16.32l-34.03 293.56zm1514.56 6.39c-225.49,0 -422.61,-47.54 -591.35,-141.82 -168.78,-94.32 -299.95,-226.21 -394.24,-396.37 -94.31,-170.18 -141.82,-368.71 -141.82,-595.61 0,-228.33 46.79,-428.27 140.38,-599.87 93.6,-171.59 225.49,-304.9 394.96,-399.9 169.46,-95.04 365.86,-142.54 589.94,-142.54 222.64,0 416.91,47.5 582.84,142.54 165.93,95 294.97,227.59 387.15,397.77 92.16,170.19 138.25,369.44 138.25,597.74 0,226.9 -46.09,425.43 -138.25,596.3 -92.18,170.91 -221.22,304.21 -387.15,399.22 -165.93,95 -359.48,142.54 -580.71,142.54zm0 -293.57c224.05,0 404.16,-77.28 540.28,-231.15 136.15,-153.87 204.23,-356.66 204.23,-609.08 0,-253.85 -68.08,-458.05 -204.92,-611.92 -136.87,-153.88 -317.67,-230.44 -541.72,-230.44 -228.34,0 -412.68,77.28 -553.09,232.57 -140.37,155.28 -210.58,360.19 -210.58,614.05 0,251.01 70.21,453.07 210.58,606.23 140.41,153.15 325.47,229.74 555.22,229.74zm2280.3 293.57c-164.49,0 -311.97,-21.99 -442.42,-65.95 -130.49,-43.96 -235.42,-87.93 -314.83,-131.89l106.34 -299.95c82.26,62.41 180.8,112.04 294.97,148.92 114.17,36.86 224.08,55.3 330.42,55.3 117.71,0 218.41,-24.11 301.36,-71.61 82.95,-47.5 124.1,-125.5 124.1,-234.69 0,-75.19 -27.65,-139 -83.67,-190.76 -56.02,-51.77 -128.36,-97.83 -216.28,-138.97 -87.93,-41.12 -180.81,-82.95 -279.35,-125.51 -98.58,-42.52 -192.17,-91.46 -280.1,-146.04 -87.93,-54.61 -158.82,-120.56 -212.71,-198.56 -53.89,-78 -80.13,-173.73 -78.72,-287.18 2.85,-181.49 69.51,-325.43 199.96,-431.09 130.49,-105.65 304.9,-158.13 523.28,-158.13 139,0 266.6,17.04 382.18,51.07 115.58,34.04 217.69,74.44 307.03,121.25l-93.6 287.17c-89.33,-48.22 -184.34,-87.24 -285.73,-116.29 -101.39,-29.06 -197.84,-43.25 -288.58,-43.25 -123.38,0 -220.54,24.11 -292.16,73.02 -71.61,48.92 -107.78,117.71 -107.78,205.64 0,66.63 28.37,124.06 84.39,172.29 56.02,48.22 127.63,92.18 215.56,132.61 87.93,40.39 181.53,82.23 280.07,124.78 98.57,42.56 191.45,91.47 278.66,147.49 87.23,56.02 157.41,123.37 211.3,201.37 53.89,78.01 79.41,173.73 76.59,287.18 -4.26,187.19 -72.33,338.93 -204.91,455.92 -132.62,116.99 -311.29,175.86 -535.37,175.86z"/>
   <path class="fil1" d="M9503.32 17309.79c-2176.35,-51.11 -3425.78,-1298.82 -4444.31,-3072.44l-31.53 -54.95 44.56 -44.97c1387.43,-1400.08 2042.07,-3694.51 2414.32,-5581.45l44.53 -225.55 110.09 201.78c391.14,716.86 851.35,1396.11 1392.45,2008.54 445.74,-113.86 959.06,-170.79 1471.66,-170.79 512.6,0 1025.92,56.93 1471.67,170.79 250.85,-283.92 490.24,-588.79 717.76,-914.98 237.73,-340.75 462.72,-705.15 674.68,-1093.56l110.13 -201.78 44.5 225.55c235.85,1195.58 537.65,2287.66 932.41,3233.54 393.11,941.94 878.19,1738.68 1481.91,2347.91l44.59 44.97 -31.57 54.95c-322.87,562.2 -778.57,1312.09 -1480.33,1931.25 -467.83,412.78 -1043.68,766.55 -1760.07,966.93 -617.93,172.82 -1824.19,257.61 -2452.68,167.37 2389.43,-87.87 3468.43,-1211.48 3782.56,-2931.46 -604.16,-821.2 -1033.37,-1833.97 -1022,-2763.06 -166.31,146.76 -344.01,259.4 -531.17,343.69 -522.53,-744.07 -1306.52,-1276.64 -2879.67,-1264.43 -165.62,1.25 -525.82,-0.57 -677.4,39.99 -223.24,-229.03 -893.53,-1011.74 -1340.72,-2079.53 -436.88,2451.12 -760.19,3933.4 -2136.66,5607.95 528.16,1036.75 1508.42,2443.22 3272.21,2914.93l0.53 0.12 -1.28 -0.12 1.28 0.12c243.97,65.23 502.74,112.7 777.55,138.69z"/>
   <polygon class="fil2" points="11111.95,14963.41 10505.12,15570.27 9898.27,14963.41 "/>
   <path class="fil0" d="M11072.87 16168.01l-47.01 -122.97c-89.83,39.8 -167.87,57.59 -234.16,53.64l-10.14 -0.81c-61.47,-6.14 -109.57,-35.14 -144.17,-86.87 -36.45,-54.54 -54.55,-137.12 -54.55,-248l0 -52.14 -63.12 78.19 -92.35 -28.99 0 1.13c0,115.73 18.07,209.14 54.55,280.53 33.22,65.04 76.91,113.58 131.11,145.42 5.29,3.1 10.71,6.11 16.22,8.89 61.81,31.35 131.11,44 207.95,38.27 76.88,-5.73 155.5,-27.68 235.67,-66.29z"/>
   <path class="fil1" d="M9937.35 16168.01l47 -122.97c89.84,39.8 167.87,57.59 234.16,53.64 66.32,-3.88 117.83,-33.13 154.31,-87.68 36.45,-54.54 54.55,-137.12 54.55,-248l0 -304.55 155.47 0 0 302.74c0,115.73 -18.06,209.14 -54.51,280.53 -36.51,71.43 -85.61,122.97 -147.36,154.31 -61.79,31.35 -131.11,44 -207.96,38.27 -76.84,-5.73 -155.5,-27.68 -235.66,-66.29z"/>
   <path class="fil1" d="M1388.96 21211.49l110.63 -289.3c211.3,93.63 394.92,135.43 550.93,126.22 155.97,-9.2 277.28,-78.03 363.04,-206.32 85.77,-128.32 128.33,-322.62 128.33,-583.55l0 -1015.9 -891.28 0 0 -302.05 1835.75 0 0 302.05 -578.58 0 0 1011.64c0,272.2 -42.58,492.12 -128.35,660.11 -85.77,168.03 -201.38,289.31 -346.73,363.05 -145.36,73.74 -308.44,103.52 -489.24,90.06 -180.81,-13.47 -365.87,-65.23 -554.5,-156.01z"/>
  </g>
 </g>
</svg>
