<?xml version="1.0" standalone="no"?>
<!DOCTYPE svg PUBLIC "-//W3C//DTD SVG 20010904//EN"
 "http://www.w3.org/TR/2001/REC-SVG-20010904/DTD/svg10.dtd">
<svg version="1.0" xmlns="http://www.w3.org/2000/svg"
 width="206.000000pt" height="76.000000pt" viewBox="0 0 206.000000 76.000000"
 preserveAspectRatio="xMidYMid meet">

<g transform="translate(0.000000,76.000000) scale(0.100000,-0.100000)"
fill="white" stroke="none">
<path d="M75 691 l35 -70 -50 -3 -50 -3 33 -55 33 -55 87 -3 c48 -1 87 -1 87
2 0 3 -13 28 -30 56 -17 28 -30 55 -30 60 0 6 22 10 49 10 l50 0 -37 65 -37
65 -88 0 -87 0 35 -69z"/>
<path d="M403 748 c-14 -19 -63 -106 -63 -112 0 -3 23 -6 50 -6 28 0 50 -2 50
-5 0 -3 -11 -22 -23 -43 -13 -20 -29 -47 -36 -59 l-12 -23 89 0 89 0 29 52
c16 29 31 56 32 60 2 5 -20 8 -48 8 l-52 0 36 64 c20 35 36 67 36 70 0 12
-167 6 -177 -6z"/>
<path d="M855 615 c-46 -17 -61 -34 -76 -89 -15 -56 -3 -121 30 -158 51 -57
170 -47 200 18 15 33 15 34 -13 34 -14 0 -30 -10 -40 -25 -13 -20 -25 -25 -56
-25 -54 0 -70 25 -70 111 0 61 3 70 26 88 15 12 35 21 46 21 28 0 58 -18 58
-35 0 -10 10 -15 30 -15 17 0 30 4 30 9 0 21 -44 61 -78 71 -45 12 -38 12 -87
-5z"/>
<path d="M1151 617 c-48 -17 -73 -56 -79 -120 -9 -108 36 -167 126 -167 91 0
132 47 132 154 0 55 -4 69 -26 95 -14 17 -42 35 -62 41 -45 12 -48 12 -91 -3z
m100 -46 c19 -15 24 -30 27 -82 3 -54 1 -68 -18 -91 -27 -35 -87 -39 -115 -8
-23 26 -31 110 -15 151 21 49 80 64 121 30z"/>
<path d="M1390 475 l0 -145 25 0 c22 0 24 4 27 58 l3 57 60 6 c84 10 115 54
84 122 -16 35 -49 47 -129 47 l-70 0 0 -145z m151 81 c16 -34 -3 -64 -45 -72
-47 -8 -56 0 -56 52 l0 44 45 0 c38 0 47 -4 56 -24z"/>
<path d="M1640 475 l0 -145 95 0 c88 0 95 1 95 20 0 18 -7 20 -70 20 l-70 0 0
45 0 45 65 0 c58 0 65 2 65 20 0 18 -7 20 -65 20 l-65 0 0 40 0 40 70 0 c63 0
70 2 70 20 0 19 -7 20 -95 20 l-95 0 0 -145z"/>
<path d="M1880 475 l0 -145 90 0 c83 0 90 1 90 20 0 18 -7 20 -65 20 l-65 0 0
125 0 125 -25 0 -25 0 0 -145z"/>
<path d="M405 385 l36 -65 -55 0 -55 0 37 -65 37 -65 88 0 c48 0 87 2 87 3 0
2 -13 28 -30 58 -16 30 -30 57 -30 62 0 4 22 7 49 7 l50 0 -37 65 -37 65 -88
0 -89 0 37 -65z"/>
<path d="M42 380 l-33 -60 51 0 51 0 -34 -65 -35 -65 88 0 87 0 29 52 c16 29
31 56 32 60 2 5 -19 8 -47 8 -28 0 -51 2 -51 5 0 3 11 22 23 43 13 20 29 47
36 60 l12 22 -88 0 -88 0 -33 -60z"/>
<path d="M895 110 c3 -5 8 -10 11 -10 2 0 4 5 4 10 0 6 -5 10 -11 10 -5 0 -7
-4 -4 -10z"/>
<path d="M1915 109 c-4 -6 -5 -12 -2 -15 2 -3 7 2 10 11 7 17 1 20 -8 4z"/>
<path d="M1220 95 c-7 -9 -8 -15 -2 -15 5 0 12 7 16 15 3 8 4 15 2 15 -2 0 -9
-7 -16 -15z"/>
<path d="M1457 91 c-4 -17 -3 -21 5 -13 5 5 8 16 6 23 -3 8 -7 3 -11 -10z"/>
<path d="M1350 91 c0 -6 4 -13 10 -16 6 -3 7 1 4 9 -7 18 -14 21 -14 7z"/>
<path d="M1730 30 c-6 -11 -8 -20 -6 -20 3 0 10 9 16 20 6 11 8 20 6 20 -3 0
-10 -9 -16 -20z"/>
</g>
</svg>
