<?xml version="1.0" encoding="UTF-8"?>
<!DOCTYPE svg PUBLIC "-//W3C//DTD SVG 1.1//EN" "http://www.w3.org/Graphics/SVG/1.1/DTD/svg11.dtd">
<svg xmlns="http://www.w3.org/2000/svg" version="1.1" width="206px" height="76px" style="shape-rendering:geometricPrecision; text-rendering:geometricPrecision; image-rendering:optimizeQuality; fill-rule:evenodd; clip-rule:evenodd" xmlns:xlink="http://www.w3.org/1999/xlink">
<g><path style="opacity:0.888" fill="white" d="M 2.5,-0.5 C 9.16667,-0.5 15.8333,-0.5 22.5,-0.5C 24.554,3.93863 26.8873,8.27197 29.5,12.5C 26.2152,13.3236 22.8818,13.8236 19.5,14C 21.581,18.1641 23.9143,22.1641 26.5,26C 19.8333,26.6667 13.1667,26.6667 6.5,26C 4.01553,22.1863 1.68219,18.3529 -0.5,14.5C -0.5,13.8333 -0.5,13.1667 -0.5,12.5C 2.57186,12.8174 5.57186,12.4841 8.5,11.5C 6.47344,7.44689 4.47344,3.44689 2.5,-0.5 Z"/></g>
<g><path style="opacity:0.888" fill="white" d="M 38.5,-0.5 C 45.1667,-0.5 51.8333,-0.5 58.5,-0.5C 57.0383,3.75678 55.0383,7.75678 52.5,11.5C 55.7848,12.3236 59.1182,12.8236 62.5,13C 59.8333,17.3333 57.1667,21.6667 54.5,26C 47.8333,26.6667 41.1667,26.6667 34.5,26C 36.9589,22.25 39.2922,18.4166 41.5,14.5C 38.2152,13.6764 34.8818,13.1764 31.5,13C 34.093,8.59043 36.4263,4.09043 38.5,-0.5 Z"/></g>
<g><path style="opacity:0.793" fill="white" d="M 89.5,11.5 C 96.9305,11.6913 101.264,15.358 102.5,22.5C 100.143,22.6633 97.8098,22.4966 95.5,22C 93.0224,17.1032 89.5224,16.2699 85,19.5C 81.5295,25.7464 82.0295,31.5797 86.5,37C 90.7289,38.4976 93.7289,37.3309 95.5,33.5C 97.7427,32.5258 100.076,32.1924 102.5,32.5C 102.216,38.2867 99.216,41.7867 93.5,43C 82.0398,44.5985 76.0398,39.5985 75.5,28C 75.4433,18.2386 80.11,12.7386 89.5,11.5 Z"/></g>
<g><path style="opacity:0.809" fill="white" d="M 118.5,11.5 C 122.379,11.9766 126.046,13.1432 129.5,15C 131.317,16.7998 132.484,18.9664 133,21.5C 136.327,37.1604 130.16,44.327 114.5,43C 109.901,41.4019 107.068,38.2353 106,33.5C 103.295,21.8793 107.462,14.5459 118.5,11.5 Z M 116.5,17.5 C 124.388,16.5555 127.721,20.0555 126.5,28C 126.484,37.5144 122.317,40.0144 114,35.5C 111.357,28.8831 112.19,22.8831 116.5,17.5 Z"/></g>
<g><path style="opacity:0.813" fill="white" d="M 137.5,12.5 C 142.844,12.334 148.177,12.5006 153.5,13C 160.036,15.9294 161.869,20.7628 159,27.5C 154.872,31.0282 150.039,32.3616 144.5,31.5C 144.5,35.1667 144.5,38.8333 144.5,42.5C 142.167,42.5 139.833,42.5 137.5,42.5C 137.5,32.5 137.5,22.5 137.5,12.5 Z M 144.5,18.5 C 146.857,18.3367 149.19,18.5034 151.5,19C 154.164,21.3548 153.997,23.5215 151,25.5C 148.901,26.2865 146.734,26.6199 144.5,26.5C 144.5,23.8333 144.5,21.1667 144.5,18.5 Z"/></g>
<g><path style="opacity:0.786" fill="white" d="M 162.5,12.5 C 169.167,12.5 175.833,12.5 182.5,12.5C 182.5,14.5 182.5,16.5 182.5,18.5C 178.167,18.5 173.833,18.5 169.5,18.5C 169.5,20.5 169.5,22.5 169.5,24.5C 173.833,24.5 178.167,24.5 182.5,24.5C 182.739,26.4672 182.406,28.3005 181.5,30C 177.514,30.4988 173.514,30.6655 169.5,30.5C 169.5,32.8333 169.5,35.1667 169.5,37.5C 174.167,37.5 178.833,37.5 183.5,37.5C 183.5,39.1667 183.5,40.8333 183.5,42.5C 176.5,42.5 169.5,42.5 162.5,42.5C 162.5,32.5 162.5,22.5 162.5,12.5 Z"/></g>
<g><path style="opacity:0.825" fill="white" d="M 205.5,37.5 C 205.5,39.1667 205.5,40.8333 205.5,42.5C 199.167,42.5 192.833,42.5 186.5,42.5C 186.5,32.5 186.5,22.5 186.5,12.5C 188.833,12.5 191.167,12.5 193.5,12.5C 193.5,20.8333 193.5,29.1667 193.5,37.5C 197.5,37.5 201.5,37.5 205.5,37.5 Z"/></g>
<g><path style="opacity:0.87" fill="white" d="M 35.5,29.5 C 42.0898,29.189 48.5898,29.5223 55,30.5C 57.3742,34.7495 59.8742,38.9162 62.5,43C 59.3618,44.2444 56.0284,44.911 52.5,45C 54.581,49.1641 56.9143,53.1641 59.5,57C 52.5857,57.8112 45.7524,57.6445 39,56.5C 36.6258,52.2505 34.1258,48.0838 31.5,44C 35.1667,43.6667 38.8333,43.3333 42.5,43C 39.4824,38.7965 37.1491,34.2965 35.5,29.5 Z"/></g>
<g><path style="opacity:0.878" fill="white" d="M -0.5,44.5 C -0.5,43.5 -0.5,42.5 -0.5,41.5C 1.97032,38.1767 4.30366,34.6767 6.5,31C 13.1667,30.3333 19.8333,30.3333 26.5,31C 24.0411,34.75 21.7078,38.5834 19.5,42.5C 22.7848,43.3236 26.1182,43.8236 29.5,44C 26.8333,48.3333 24.1667,52.6667 21.5,57C 15.1405,57.8306 8.80717,57.6639 2.5,56.5C 4.5,52.8333 6.5,49.1667 8.5,45.5C 5.57186,44.5159 2.57186,44.1826 -0.5,44.5 Z"/></g>
<g><path style="opacity:0.399" fill="white" d="M 98.5,63.5 C 97.8333,63.5 97.5,63.8333 97.5,64.5C 95.3948,65.8679 93.0614,66.8679 90.5,67.5C 89.9169,69.0016 89.0836,70.3349 88,71.5C 89.1406,63.1504 86.3073,61.6504 79.5,67C 78.5,67.6667 77.5,67.6667 76.5,67C 79.663,62.9057 83.663,61.4057 88.5,62.5C 90.2533,59.9952 91.7533,57.3286 93,54.5C 94.7328,52.3985 96.7328,52.0652 99,53.5C 99.6588,56.8881 99.4922,60.2214 98.5,63.5 Z M 95.5,54.5 C 98.1263,57.673 97.793,60.8397 94.5,64C 93.552,64.4828 92.552,64.6495 91.5,64.5C 92.2759,60.9475 93.6092,57.6142 95.5,54.5 Z"/></g>
<g><path style="opacity:0.402" fill="white" d="M 173.5,75.5 C 172.5,75.5 171.5,75.5 170.5,75.5C 170.84,73.321 171.84,71.4877 173.5,70C 171.671,69.7265 170.171,68.8932 169,67.5C 167.759,69.4206 166.259,69.754 164.5,68.5C 165.64,66.9222 166.14,65.2555 166,63.5C 163.327,66.0022 160.327,68.0022 157,69.5C 155.739,69.2409 154.739,68.5742 154,67.5C 150.06,70.2797 148.726,69.2797 150,64.5C 148.316,66.3513 146.483,68.018 144.5,69.5C 143.808,68.9747 143.308,68.3081 143,67.5C 139.376,70.469 136.21,70.1357 133.5,66.5C 134.253,64.2466 135.586,62.4133 137.5,61C 136.914,54.7563 139.914,51.923 146.5,52.5C 146.451,55.0991 145.451,57.2658 143.5,59C 142.668,59.6877 142.002,59.521 141.5,58.5C 142.313,57.1861 143.313,56.0195 144.5,55C 139.746,55.0914 138.079,57.4248 139.5,62C 137.424,63.2438 136.424,65.0771 136.5,67.5C 141.385,66.7229 145.385,64.3895 148.5,60.5C 148.833,61.1667 149.167,61.8333 149.5,62.5C 150.833,61.5 152.167,60.5 153.5,59.5C 154.242,61.1082 154.409,62.7749 154,64.5C 155.708,62.4565 157.708,60.7899 160,59.5C 161.585,60.3757 162.585,61.7091 163,63.5C 164,61.8333 165,60.1667 166,58.5C 167.298,59.5596 168.465,60.7263 169.5,62C 168.482,66.4224 169.149,66.4224 171.5,62C 173.351,61.1628 175.184,60.3295 177,59.5C 179.93,60.9049 180.097,62.7382 177.5,65C 180.101,64.5993 182.101,63.0993 183.5,60.5C 183.88,62.0207 184.046,63.6874 184,65.5C 185.825,62.1626 188.659,60.1626 192.5,59.5C 193.5,59.8333 194.167,60.5 194.5,61.5C 193.674,62.451 193.508,63.451 194,64.5C 198.312,62.8927 201.812,64.0594 204.5,68C 201.82,68.3348 199.487,67.5014 197.5,65.5C 195.191,66.6508 193.024,67.9841 191,69.5C 189.667,68.1667 188.333,68.1667 187,69.5C 185.739,69.2409 184.739,68.5742 184,67.5C 182.057,69.7151 180.391,69.7151 179,67.5C 176.139,69.5166 174.305,72.1833 173.5,75.5 Z M 175.5,61.5 C 176.239,61.369 176.906,61.5357 177.5,62C 175.667,63.8333 173.833,65.6667 172,67.5C 171.651,64.6695 172.817,62.6695 175.5,61.5 Z M 190.5,61.5 C 191.525,61.8966 191.692,62.5632 191,63.5C 189.667,64.8333 188.333,66.1667 187,67.5C 186.651,64.6695 187.817,62.6695 190.5,61.5 Z M 159.5,62.5 C 158.998,64.0847 157.998,64.5847 156.5,64C 157.244,62.9614 158.244,62.4614 159.5,62.5 Z"/></g>
<g><path style="opacity:0.258" fill="white" d="M 184.5,56.5 C 187.125,57.4657 187.125,58.4657 184.5,59.5C 183.438,58.5754 183.438,57.5754 184.5,56.5 Z"/></g>
<g><path style="opacity:0.391" fill="white" d="M 97.5,64.5 C 98.1667,64.5 98.5,64.1667 98.5,63.5C 99.7124,62.7701 100.712,61.7701 101.5,60.5C 102.242,62.1082 102.409,63.7749 102,65.5C 103.46,63.5343 105.127,61.8677 107,60.5C 107.5,60.6667 108,60.8333 108.5,61C 107.235,62.3374 106.735,63.8374 107,65.5C 109.221,64.0656 110.721,62.0656 111.5,59.5C 115.068,60.3146 116.234,62.3146 115,65.5C 117.589,61.4448 121.089,60.1115 125.5,61.5C 125.069,62.2935 124.735,63.1268 124.5,64C 125.167,64.6667 125.833,65.3333 126.5,66C 125.728,67.221 124.728,68.221 123.5,69C 119.599,69.0501 115.765,69.2167 112,69.5C 111.5,69.1667 111,68.8333 110.5,68.5C 111.64,66.9222 112.14,65.2555 112,63.5C 109.888,66.284 107.221,68.284 104,69.5C 103.055,69.0946 102.388,68.428 102,67.5C 100.89,69.0368 99.3904,69.7035 97.5,69.5C 97.5,67.8333 97.5,66.1667 97.5,64.5 Z M 120.5,62.5 C 121.239,62.369 121.906,62.5357 122.5,63C 121.695,64.9717 120.361,66.4717 118.5,67.5C 118.167,67.1667 117.833,66.8333 117.5,66.5C 118.524,65.1482 119.524,63.8149 120.5,62.5 Z"/></g>
</svg>
